# File created by Blade
# Date/Time:  Tue Jan 27 19:32:37 2015
# Frame Rate: 120.000 fps
#------------------------------------------------------
:FULLY-SPECIFIED
:DEGREES
3519
root 2.368252 32.201328 0.659636 -2.429784 -20.088165 -2.793170
Spine 3.055792 -18.254633 -2.332038
Head 19.436855 10.681450 8.227216
LeftShoulder -12.620935 0.643406 29.140945
LeftArm -5.466093 43.356944 -107.491850
LeftForeArm 3.003523 -0.000000 16.455318
LeftHand 10.016108 -0.000000 -4.199259
LeftHandThumb1 -26.253704 0.000000 33.147579
RightShoulder -31.433640 -25.794947 -31.662651
RightArm -21.695592 70.770623 43.368242
RightForeArm -4.132977 -0.000000 152.481272
RightHand 28.640123 0.000000 -40.634786
RightHandThumb1 -24.326973 -0.000000 -32.862282
LeftUpLeg 16.984751 19.392049 5.096094
LeftLeg -1.112624 -0.000000 0.000000
LeftFoot -22.598003 18.606452 -26.702501
LeftToeBase 15.880091 -0.000000 -0.000000
RightUpLeg 7.411263 8.084220 6.833924
RightLeg 2.850946 -0.000000 -0.000000
RightFoot -11.004561 -11.025497 12.251454
RightToeBase 11.992867 -0.000000 -0.000000
3520
root 2.370339 32.200624 0.656329 -2.446730 -20.090404 -2.775484
Spine 3.069840 -18.265630 -2.349691
Head 19.432631 10.755039 8.245270
LeftShoulder -12.641232 0.710064 29.119268
LeftArm -5.354438 43.216767 -107.420101
LeftForeArm 3.275551 -0.000000 16.459215
LeftHand 10.006489 -0.000000 -4.237931
LeftHandThumb1 -26.253704 0.000000 33.147579
RightShoulder -31.417353 -25.749925 -31.690866
RightArm -21.680765 70.707963 43.419956
RightForeArm -4.474433 -0.000000 152.721868
RightHand 28.788197 -0.000000 -40.535125
RightHandThumb1 -24.326973 -0.000000 -32.862282
LeftUpLeg 16.983611 19.375079 5.074147
LeftLeg -1.103139 -0.000000 0.000000
LeftFoot -22.614904 18.611260 -26.730565
LeftToeBase 15.923402 -0.000000 -0.000000
RightUpLeg 7.418622 8.100726 6.823542
RightLeg 2.847128 -0.000000 -0.000000
RightFoot -11.014523 -11.061170 12.222422
RightToeBase 11.916094 -0.000000 -0.000000
3521
root 2.371787 32.199998 0.653538 -2.468802 -20.097914 -2.766640
Spine 3.089618 -18.249331 -2.362541
Head 19.430371 10.794873 8.274092
LeftShoulder -12.685727 0.807427 29.097204
LeftArm -5.185972 43.185582 -107.342216
LeftForeArm 3.178340 -0.000000 16.423303
LeftHand 10.000013 -0.000000 -4.100322
LeftHandThumb1 -26.253704 0.000000 33.147579
RightShoulder -31.417230 -25.708452 -31.693278
RightArm -21.789833 70.695453 43.369611
RightForeArm -4.691535 0.000000 152.795971
RightHand 29.049735 -0.000000 -39.340768
RightHandThumb1 -24.326973 -0.000000 -32.862282
LeftUpLeg 16.999696 19.401537 5.079512
LeftLeg -1.097180 -0.000000 0.000000
LeftFoot -22.610739 18.576882 -26.736897
LeftToeBase 15.918938 -0.000000 -0.000000
RightUpLeg 7.437926 8.106639 6.817957
RightLeg 2.836225 -0.000000 -0.000000
RightFoot -11.020475 -11.071083 12.224660
RightToeBase 11.897696 -0.000000 -0.000000
3522
root 2.372455 32.200028 0.649986 -2.478168 -20.103178 -2.767719
Spine 3.105263 -18.237719 -2.365573
Head 19.412698 10.830043 8.306672
LeftShoulder -12.702806 0.768999 29.084556
LeftArm -5.220938 43.012039 -107.366458
LeftForeArm 3.152913 -0.000000 16.428084
LeftHand 9.961280 -0.000000 -3.975877
LeftHandThumb1 -26.253704 0.000000 33.147579
RightShoulder -31.533111 -25.790569 -31.605862
RightArm -20.969557 70.560735 44.217291
RightForeArm -4.816633 -0.000000 152.692399
RightHand 29.035053 -0.000000 -39.028624
RightHandThumb1 -24.326973 -0.000000 -32.862282
LeftUpLeg 17.002158 19.409242 5.085370
LeftLeg -1.092232 -0.000000 0.000000
LeftFoot -22.608175 18.564509 -26.722838
LeftToeBase 15.939540 -0.000000 -0.000000
RightUpLeg 7.443872 8.089133 6.818599
RightLeg 2.828750 -0.000000 -0.000000
RightFoot -11.015545 -11.055151 12.236505
RightToeBase 11.927617 -0.000000 -0.000000
3523
root 2.374581 32.200083 0.647277 -2.496513 -20.096377 -2.761576
Spine 3.127288 -18.231971 -2.379361
Head 19.395637 10.811983 8.349950
LeftShoulder -12.708607 0.711726 29.093230
LeftArm -5.277301 42.809906 -107.410212
LeftForeArm 3.118380 -0.000000 16.432313
LeftHand 10.170295 -0.000000 -4.292988
LeftHandThumb1 -26.253704 0.000000 33.147579
RightShoulder -31.645650 -25.894447 -31.512590
RightArm -20.062009 70.408429 45.163510
RightForeArm -4.842972 -0.000000 152.465875
RightHand 28.582601 -0.000000 -39.519284
RightHandThumb1 -24.326973 -0.000000 -32.862282
LeftUpLeg 17.011127 19.401158 5.080582
LeftLeg -1.090672 -0.000000 0.000000
LeftFoot -22.600135 18.574047 -26.711064
LeftToeBase 15.951602 -0.000000 -0.000000
RightUpLeg 7.456842 8.066668 6.809127
RightLeg 2.823783 -0.000000 -0.000000
RightFoot -11.008931 -11.038164 12.228201
RightToeBase 11.926432 -0.000000 -0.000000
